<svg width="17" height="16" viewBox="0 0 17 16" fill="none" xmlns="http://www.w3.org/2000/svg">
<g id="icon/facebook">
<path id="Vector" d="M16.25 8C16.25 3.58172 12.6683 0 8.25 0C3.83172 0 0.25 3.58172 0.25 8C0.25 11.993 3.17547 15.3027 7 15.9028V10.3125H4.96875V8H7V6.2375C7 4.2325 8.19438 3.125 10.0217 3.125C10.8967 3.125 11.8125 3.28125 11.8125 3.28125V5.25H10.8038C9.81 5.25 9.5 5.86672 9.5 6.5V8H11.7188L11.3641 10.3125H9.5V15.9028C13.3245 15.3027 16.25 11.993 16.25 8Z" fill="#1877F2"/>
<path id="Vector_2" d="M11.3641 10.3125L11.7188 8H9.5V6.5C9.5 5.86734 9.81 5.25 10.8038 5.25H11.8125V3.28125C11.8125 3.28125 10.897 3.125 10.0217 3.125C8.19438 3.125 7 4.2325 7 6.2375V8H4.96875V10.3125H7V15.9028C7.8283 16.0324 8.6717 16.0324 9.5 15.9028V10.3125H11.3641Z" fill="white"/>
</g>
</svg>
