<svg width="17" height="16" viewBox="0 0 17 16" fill="none" xmlns="http://www.w3.org/2000/svg">
<g id="icon/google">
<path id="Vector" d="M16.5942 8.18429C16.5942 7.64047 16.5501 7.09371 16.456 6.55872H8.91016V9.63937H13.2313C13.052 10.6329 12.4758 11.5119 11.6322 12.0704V14.0693H14.2102C15.7241 12.6759 16.5942 10.6182 16.5942 8.18429Z" fill="#4285F4"/>
<path id="Vector_2" d="M8.90974 16.0006C11.0674 16.0006 12.887 15.2921 14.2127 14.0693L11.6347 12.0704C10.9175 12.5583 9.9915 12.8347 8.91268 12.8347C6.8256 12.8347 5.05598 11.4266 4.42104 9.53354H1.76074V11.5942C3.11882 14.2956 5.88494 16.0006 8.90974 16.0006V16.0006Z" fill="#34A853"/>
<path id="Vector_3" d="M4.41852 9.53353C4.08341 8.53996 4.08341 7.46408 4.41852 6.47051V4.40988H1.76116C0.626489 6.6704 0.626489 9.33364 1.76116 11.5942L4.41852 9.53353V9.53353Z" fill="#FBBC04"/>
<path id="Vector_4" d="M8.90974 3.16644C10.0503 3.1488 11.1526 3.57798 11.9786 4.36578L14.2627 2.08174C12.8164 0.72367 10.8969 -0.0229773 8.90974 0.000539111C5.88494 0.000539111 3.11882 1.70548 1.76074 4.40987L4.4181 6.4705C5.0501 4.57449 6.82266 3.16644 8.90974 3.16644V3.16644Z" fill="#EA4335"/>
</g>
</svg>
