<svg width="13" height="12" viewBox="0 0 13 12" fill="none" xmlns="http://www.w3.org/2000/svg">
<path d="M8.28942 1.00008L8.28582 1.50008H8.28942V1.00008ZM6.26312 1.68376L5.95891 2.08057L6.26263 2.31342L6.56671 2.08104L6.26312 1.68376ZM6.10523 1.58429L5.84482 2.01119L5.85115 2.01492L6.10523 1.58429ZM5.87891 1.43166L6.11421 0.990483L6.09892 0.982327L6.0831 0.97525L5.87891 1.43166ZM5.67892 1.34219L5.43796 1.78029L5.45597 1.7902L5.47473 1.7986L5.67892 1.34219ZM5.34734 1.20482L5.00297 1.56732L5.08573 1.64594L5.19441 1.68086L5.34734 1.20482ZM5.29997 1.17377L5.5145 0.722128L5.41269 0.673767H5.29997V1.17377ZM5.26892 1.17377L5.10793 1.64714L5.18622 1.67377H5.26892V1.17377ZM4.30524 1.00008L4.32032 0.500311L4.31278 0.500084H4.30524V1.00008ZM3.80525 1.03166V1.53166H3.84153L3.87744 1.52642L3.80525 1.03166ZM3.74209 1.03166V0.531663H3.70973L3.67763 0.535835L3.74209 1.03166ZM3.2742 1.14166L3.42973 1.61692L3.4372 1.61435L3.2742 1.14166ZM1.20527 5.77899L0.728949 5.93104L0.73131 5.93844L0.7339 5.94576L1.20527 5.77899ZM2.78999 8.30476L2.43518 8.65721L2.44287 8.66463L2.78999 8.30476ZM6.14207 10.9153L5.87849 11.3401L5.87884 11.3404L6.14207 10.9153ZM6.27891 11L6.01568 11.4251L6.27566 11.5861L6.53742 11.428L6.27891 11ZM6.41049 10.9205L6.66903 11.3486L6.67607 11.3442L6.41049 10.9205ZM9.74257 8.31002L10.0904 8.66925L10.0961 8.66358L9.74257 8.31002ZM11.3262 5.77899L11.7984 5.94343L11.801 5.93611L11.8033 5.92871L11.3262 5.77899ZM9.42742 0.67869C9.05419 0.553449 8.66804 0.500084 8.28942 0.500084V1.50008C8.575 1.50008 8.85201 1.5404 9.1093 1.62674L9.42742 0.67869ZM8.29302 0.500097C7.44798 0.494018 6.63041 0.773813 5.95953 1.28648L6.56671 2.08104C7.0653 1.70004 7.66772 1.49562 8.28582 1.50007L8.29302 0.500097ZM6.56734 1.28696C6.48883 1.22677 6.39283 1.17343 6.3593 1.15365L5.85115 2.01492C5.92289 2.05725 5.94267 2.06812 5.95891 2.08057L6.56734 1.28696ZM6.36561 1.15744C6.36914 1.15959 6.36596 1.1578 6.34958 1.14609C6.3299 1.13202 6.32235 1.1263 6.294 1.10589C6.25405 1.07714 6.1864 1.02899 6.11421 0.990483L5.64362 1.87284C5.64358 1.87282 5.64538 1.87378 5.64923 1.87612C5.65301 1.87842 5.65794 1.88155 5.66416 1.88567C5.67698 1.89415 5.69179 1.90454 5.70988 1.91755C5.72166 1.92603 5.7526 1.94857 5.76795 1.95954C5.7866 1.97288 5.815 1.99293 5.84485 2.01114L6.36561 1.15744ZM6.0831 0.97525L5.8831 0.885777L5.47473 1.7986L5.67473 1.88807L6.0831 0.97525ZM5.91988 0.904078C5.77566 0.824762 5.63238 0.771223 5.50028 0.728782L5.19441 1.68086C5.29493 1.71315 5.37164 1.74382 5.43796 1.78029L5.91988 0.904078ZM5.69172 0.842319C5.63651 0.789878 5.57462 0.750686 5.5145 0.722128L5.08544 1.62541C5.06743 1.61685 5.03711 1.59976 5.00297 1.56732L5.69172 0.842319ZM5.29997 0.673767H5.26892V1.67377H5.29997V0.673767ZM5.42991 0.700395C5.07139 0.578461 4.70114 0.511796 4.32032 0.500311L4.29017 1.49986C4.5725 1.50837 4.84435 1.5575 5.10793 1.64714L5.42991 0.700395ZM4.30524 0.500084H4.24735V1.50008H4.30524V0.500084ZM4.24735 0.500084C4.07715 0.500084 3.90614 0.511648 3.73306 0.536901L3.87744 1.52642C4.00015 1.50852 4.12281 1.50008 4.24735 1.50008V0.500084ZM3.80525 0.531663H3.74209V1.53166H3.80525V0.531663ZM3.67763 0.535835C3.48619 0.560722 3.29581 0.605317 3.1112 0.668975L3.4372 1.61435C3.55785 1.57274 3.6822 1.54366 3.80655 1.52749L3.67763 0.535835ZM3.11869 0.666461C0.821805 1.41813 0.0758043 3.8849 0.728949 5.93104L1.68159 5.62695C1.14527 3.9468 1.79926 2.15044 3.42971 1.61686L3.11869 0.666461ZM0.7339 5.94576C1.09528 6.96723 1.67761 7.89439 2.43526 8.65713L3.14473 7.95239C2.49187 7.29514 1.98893 6.49495 1.67664 5.61223L0.7339 5.94576ZM2.44287 8.66463C3.49394 9.67848 4.64348 10.574 5.87849 11.3401L6.40565 10.4904C5.23121 9.76181 4.13761 8.90997 3.13712 7.94489L2.44287 8.66463ZM5.87884 11.3404L6.01568 11.4251L6.54215 10.5749L6.40531 10.4902L5.87884 11.3404ZM6.53742 11.428L6.669 11.3485L6.15198 10.4925L6.0204 10.572L6.53742 11.428ZM6.67607 11.3442C7.90612 10.573 9.04895 9.67775 10.0904 8.6692L9.39473 7.95084C8.40357 8.91069 7.31589 9.76278 6.14491 10.4969L6.67607 11.3442ZM10.0961 8.66358C10.8601 7.89957 11.4424 6.96573 11.7984 5.94343L10.8541 5.61455C10.5469 6.49644 10.045 7.30049 9.38901 7.95647L10.0961 8.66358ZM11.8033 5.92871C12.4441 3.88684 11.7018 1.41809 9.42295 0.677213L9.11377 1.62822C10.7202 2.15049 11.3778 3.94485 10.8492 5.62927L11.8033 5.92871Z" fill="#808080"/>
</svg>
