<svg width="16" height="16" viewBox="0 0 16 16" fill="none" xmlns="http://www.w3.org/2000/svg">
<path fill-rule="evenodd" clip-rule="evenodd" d="M2.33333 6.87855C2.33333 3.81197 4.89592 1.33337 7.99563 1.33337C11.1041 1.33337 13.6667 3.81197 13.6667 6.87855C13.6667 8.42383 13.1047 9.85846 12.1797 11.0744C11.1592 12.4157 9.90143 13.5844 8.48569 14.5017C8.16167 14.7137 7.86924 14.7297 7.51363 14.5017C6.08982 13.5844 4.83205 12.4157 3.82033 11.0744C2.89465 9.85846 2.33333 8.42383 2.33333 6.87855ZM6.12948 7.05121C6.12948 8.07851 6.96777 8.88649 7.99563 8.88649C9.02416 8.88649 9.87051 8.07851 9.87051 7.05121C9.87051 6.0319 9.02416 5.1846 7.99563 5.1846C6.96777 5.1846 6.12948 6.0319 6.12948 7.05121Z" fill="#FECD09"/>
</svg>
