<svg width="236" height="319" viewBox="0 0 236 319" fill="none" xmlns="http://www.w3.org/2000/svg">
<g clip-path="url(#clip0_672_4583)">
<path fill-rule="evenodd" clip-rule="evenodd" d="M88.4872 256.71C88.1941 254.47 86.9175 215.066 86.9175 215.066C86.9175 215.066 96.0677 205.802 96.7044 203.86C97.3191 201.943 103.648 189.462 103.648 189.462L80.6136 165.775L70.5304 110.681L72.7368 38.9757L81.5686 10.7825L123.811 5.02861L170.177 8.86557L183.425 36.7356L173.981 146.872L160.734 184.006L142.115 184.652L145.28 203.556L148.737 217.627L147.779 223.704L153.15 229.681L157.248 239.096L148.416 243.256L144 253.817L88.4841 256.707L88.4872 256.71Z" fill="#FEFEFE"/>
<path fill-rule="evenodd" clip-rule="evenodd" d="M176.92 57.9813C212.197 78.6798 235.944 117.408 235.944 161.743C235.944 227.893 183.127 281.517 117.972 281.517C52.8176 281.517 0 227.893 0 161.743C0 111.83 30.0761 69.0666 72.8106 51.0594L69.107 84.6097L82.3548 172.329L94.326 181.942L108.21 189.613L94.326 206.922L87.4074 247.247L141.01 246.623L157.202 239.327L151.093 224.209L144.174 205.629L141.01 185.779L164.341 165.282L175.061 99.9767L176.927 57.9845L176.92 57.9813Z" fill="#FFCB01"/>
<path fill-rule="evenodd" clip-rule="evenodd" d="M139.342 273.747C139.711 270.659 139.66 271.654 140.127 271.206C141.917 274.368 145.205 278.778 147.657 280.074C157.863 285.527 150.33 243.263 148.221 242.84C146.699 242.517 143.143 245.679 136.568 246.104C134.655 241.72 130.829 233.403 127.443 230.264C124.109 227.15 124.72 231.185 125.678 232.158C124.036 232.533 120.109 233.08 120.329 234.85C121.36 236.12 122.366 235.022 123.592 235.646C121.874 236.094 119.913 236.37 120.033 237.64C120.427 239.234 121.31 238.735 122.927 238.587C122.977 239.035 121.65 239.858 121.505 240.331C120.72 242.946 125.111 241.576 125.968 241.253C125.502 241.999 125.332 242.373 125.943 242.997C127.856 243.221 129.476 242.274 130.529 240.981C129.77 245.09 122.63 243.97 119.538 243.57C114.927 242.972 98.5398 243.32 94.0009 237.368C91.2524 233.781 94.7133 219.835 95.9394 215.748C97.6572 210.17 100.601 203.469 106.316 193.757C107.05 192.512 108.377 190.694 108.866 189.596C96.3775 191.366 88.5795 213.431 84.7278 228.027C81.5128 240.232 74.0804 270.442 75.1616 284.189L75.6028 285.857C79.3821 289.841 86.0044 272.109 91.0097 270.266C91.9175 275.946 93.5376 295.271 98.0733 308.446C97.3389 311.061 90.7134 311.909 90.1744 318.012C93.0679 317.861 100.894 315.496 103.643 313.679C104.428 313.157 112.106 272.733 112.793 272.134C114.07 272.656 127.021 313.554 128.124 313.976C131.535 315.346 134.576 316.242 139.727 315.97C138.844 310.939 133.448 309.867 133.227 306.504C137.397 303.79 138.576 279.706 139.336 273.75L139.342 273.747Z" fill="#07010D"/>
<path fill-rule="evenodd" clip-rule="evenodd" d="M153.049 230.386C161.66 226.876 155.722 208.718 152.018 201.396C147.946 193.277 140.807 187.549 131.656 187.273C132.391 191.955 133.374 200.973 132.072 205.457L128.148 219.579C126.995 224.136 126.137 226.178 127.486 229.468C132.195 227.077 136.734 223.989 140.17 222.171C143.385 220.504 146.007 220.078 148.217 222.571C149.175 223.643 151.996 229.893 153.049 230.393V230.386Z" fill="#07010D"/>
<path fill-rule="evenodd" clip-rule="evenodd" d="M127.81 213.947C129.231 210.932 128.938 200.896 127.882 196.637C124.128 197.61 118.559 201.344 116.624 203.313C113.752 200.672 110.244 196.787 107.079 195.517C106.049 197.959 103.669 208.993 104.038 212.206L116.598 206.301C119.47 209.441 123.785 213.623 127.81 213.947Z" fill="#07010D"/>
<path fill-rule="evenodd" clip-rule="evenodd" d="M65.2262 154.322C63.8771 111.334 64.1703 78.4559 67.9747 37.1869C70.4521 10.5361 78.745 4.03667 96.1628 2.5678C111.273 1.29735 157.588 -1.46757 170.127 0.974134C189.458 4.7599 190.268 19.7045 188.55 42.6431C185.509 83.0161 182.735 121.92 180.579 162.021C178.763 196.291 164.387 195.645 139.978 196.269L94.5711 194.675C71.2653 190.665 66.4586 182.198 65.2325 154.328L65.2262 154.322ZM104.452 169.413C104.525 164.956 106.955 164.306 110.12 164.184C112.89 164.111 122.264 164.383 124.521 164.882C128.004 165.653 128.445 168.543 127.588 172.281C125.038 183.238 104.159 182.617 104.456 169.417L104.452 169.413ZM76.8286 125.155C75.7979 93.2757 76.0185 68.8907 78.9373 38.2813C80.8253 18.5301 87.1797 13.6979 100.55 12.629C112.131 11.6818 147.625 9.61451 157.242 11.4322C172.059 14.2451 172.671 25.3304 171.347 42.3423C169.018 72.2796 166.269 98.7543 164.624 128.493C163.224 153.899 156.063 155.566 130.844 154.37L99.2959 154.12C82.395 153.521 77.7584 145.825 76.8254 125.152L76.8286 125.155Z" fill="#07010D"/>
<path fill-rule="evenodd" clip-rule="evenodd" d="M132.202 128.269C132.252 135.591 133.746 136.689 135.71 136.836C137.428 136.986 143.218 136.538 144.64 135.716C146.799 134.42 147.461 129.69 147.461 123.536C147.461 104.857 132.032 105.903 132.202 128.269Z" fill="#2B2A29"/>
<path fill-rule="evenodd" clip-rule="evenodd" d="M101.979 127.572C101.907 134.67 100.409 135.716 98.4456 135.889C96.753 136.014 90.9376 135.591 89.5413 134.795C87.3822 133.55 87.1112 128.941 87.6533 122.989C89.223 105.529 102.152 106.55 101.979 127.572Z" fill="#2B2A29"/>
<path fill-rule="evenodd" clip-rule="evenodd" d="M46.4885 212.03C52.058 221.394 77.3967 228.044 88.3404 225.704L88.7564 224.159C91.382 214.222 95.943 200.573 102.739 193.174C102.493 193.002 102.247 192.851 102.004 192.675C91.3316 203.757 76.3188 213.646 66.1883 209.364C65.0347 211.854 57.6275 212.776 46.4885 212.03Z" fill="#07010D"/>
<path fill-rule="evenodd" clip-rule="evenodd" d="M44.4672 180.572C57.0278 180.572 67.3789 192.029 67.7477 206.302C54.7206 211.707 29.6025 209.566 20.5973 206.078C21.2119 192.054 31.9318 180.572 44.4672 180.572Z" fill="#2B2A29"/>
<path fill-rule="evenodd" clip-rule="evenodd" d="M67.068 202.516C72.1963 203.636 75.3357 205.156 75.3357 206.823C75.3357 210.359 61.2778 213.249 43.9609 213.249C26.644 213.249 12.5609 210.359 12.5609 206.823C12.5609 205.277 15.2842 203.86 19.7979 202.74C19.4795 204.433 19.2841 206.151 19.2589 207.921C28.5824 211.134 54.4128 212.478 67.6102 206.676C67.5125 205.255 67.3391 203.863 67.0712 202.516H67.068Z" fill="#2B2A29"/>
<path fill-rule="evenodd" clip-rule="evenodd" d="M45.97 182.54C47.1236 182.467 48.252 182.515 49.3552 182.639C38.6606 184.185 30.3929 193.549 28.9935 205.204C27.0298 204.954 25.2142 204.657 23.6225 204.333C25.438 192.378 34.5882 183.062 45.97 182.54Z" fill="#FEFEFE"/>
<path fill-rule="evenodd" clip-rule="evenodd" d="M43.7925 177.532C45.4599 177.532 46.8341 179.052 46.8846 180.943C45.1667 181.667 41.8319 181.366 40.6531 180.918C40.7256 179.049 42.1503 177.532 43.7925 177.532Z" fill="#2B2A29"/>
</g>
<defs>
<clipPath id="clip0_672_4583">
<rect width="235.944" height="318.012" fill="white"/>
</clipPath>
</defs>
</svg>
