<svg width="36" height="36" viewBox="0 0 36 36" fill="none" xmlns="http://www.w3.org/2000/svg">
<path fill-rule="evenodd" clip-rule="evenodd" d="M15.6912 10.0542C13.1914 10.3905 11.1179 12.0971 10.3301 14.4667C10.0752 15.2334 9.97585 15.9328 10.0049 16.7568C10.039 17.7257 10.2252 18.484 10.6415 19.3501C11.4804 21.0953 13.0335 22.374 14.894 22.8512C15.402 22.9815 15.6949 23.0194 16.3292 23.0371C17.5187 23.0701 18.4045 22.8786 19.455 22.3613C19.6983 22.2415 19.9021 22.1487 19.908 22.1551C19.9139 22.1615 19.9937 22.2937 20.0852 22.4489C20.3645 22.922 21.0891 23.9979 21.4712 24.5066C21.6701 24.7713 21.9755 25.1313 22.1501 25.3066C22.4158 25.5735 22.5141 25.6479 22.754 25.764C23.3107 26.0332 23.9176 26.0733 24.4805 25.8781C25.778 25.428 26.3638 23.9998 25.7643 22.7478C25.6512 22.5114 25.5778 22.4145 25.3104 22.1486C25.1349 21.9741 24.7597 21.6583 24.4766 21.4468C23.9829 21.0781 22.7997 20.2845 22.4172 20.0654C22.3168 20.0079 22.214 19.9473 22.1889 19.9308C22.1524 19.9069 22.1872 19.8118 22.3618 19.4573C22.7024 18.7659 22.8913 18.1588 23.0008 17.404C23.0678 16.9422 23.0516 15.8527 22.9715 15.4292C22.6238 13.5907 21.6425 12.0914 20.1254 11.0807C18.8477 10.2294 17.209 9.85001 15.6912 10.0542ZM15.794 12.5121C14.5777 12.7315 13.4943 13.5277 12.9157 14.6273C12.188 16.01 12.3196 17.7274 13.2484 18.9667C13.4845 19.2817 13.9205 19.693 14.256 19.917C15.3174 20.626 16.635 20.8021 17.8363 20.3956C19.8758 19.7055 21.0279 17.5543 20.4715 15.4753C20.062 13.9455 18.7823 12.7771 17.223 12.5094C16.8574 12.4466 16.1494 12.4479 15.794 12.5121Z" fill="black"/>
</svg>
